# xmcd
#
# Track frame offsets:
#	150
#	14082
#	28733
#	52993
#	71582
#	91069
#	116961
#	134386
#	155276
#	170592
#	188860
#	214212
#	233086
#
# Disc length: 3369 seconds
#
# Revision: 0
# Processed by: cddbd v1.5.1PL0 Copyright (c) Steve Scherf et al.
# Submitted via: dBpowerAMP V4.0
#
DISCID=b50d270d
DTITLE=The Carpenter Ants - Long Live the Queen
DYEAR=1997
DGENRE=Blues
TTITLE0=Daddy Y'ar
TTITLE1=I Can't Stand It
TTITLE2=If I Could I Would
TTITLE3=12 Bar Blues
TTITLE4=Bit by Bit
TTITLE5=I Can't Keep From Cryin'
TTITLE6=Broken Mold
TTITLE7=I Want to Know
TTITLE8=Can't Get No Grindin'
TTITLE9=Bright Lights, Big City
TTITLE10=Your Gonna Need Somebody on Your Bond
TTITLE11=Mary Lou
TTITLE12=Fixin' to Die
EXTD=Recorded live at the Empty Glass, Charleston WV, on December 4, 1996.\nProduced by Michael Lipton\nAlpo Records, Charleston WV
EXTT0=
EXTT1=
EXTT2=
EXTT3=
EXTT4=
EXTT5=
EXTT6=
EXTT7=
EXTT8=
EXTT9=
EXTT10=
EXTT11=
EXTT12=
PLAYORDER=
